<svg width="1920" height="1007" viewBox="0 0 1920 1007" fill="none" xmlns="http://www.w3.org/2000/svg">
<path d="M2311.71 687.167C1871.88 528.61 744.301 208.573 -247.373 196.877M2211.4 702.929C1771.57 544.373 643.993 224.336 -347.681 212.639M2216.65 586.047C1776.82 427.49 649.241 107.454 -342.432 95.7569M2198.33 990.515C1798.18 748.693 755.383 213.508 -214.694 7.34463M2223.17 440.95C1764.58 349.913 601.831 202.001 -380.452 338.654M2219.89 513.876C1761.3 422.839 598.556 274.928 -383.727 411.581M2214.88 482.233C1749.74 435.04 578.207 397.924 -386.717 626.999" stroke="#FFCA2E"/>
<path d="M2298.18 698.571C1858.35 540.015 730.776 219.978 -260.898 208.282M2197.88 714.334C1758.05 555.777 630.468 235.741 -361.206 224.044M2203.12 597.451C1763.29 438.895 635.716 118.858 -355.958 107.162M2184.8 1001.92C1784.66 760.097 741.858 224.913 -228.219 18.7494M2209.64 452.354C1751.05 361.317 588.306 213.406 -393.977 350.059M2206.37 525.281C1747.78 434.244 585.031 286.333 -397.252 422.985M2201.36 493.638C1736.21 446.445 564.682 409.328 -400.242 638.404" stroke="black"/>
</svg>
