<svg width="570" height="413" viewBox="0 0 570 413" fill="none" xmlns="http://www.w3.org/2000/svg">
<g clip-path="url(#clip0)">
<path d="M308.449 76.913C308.309 92.9176 307.135 108.897 304.936 124.75C304.859 125.307 304.775 125.864 304.698 126.42L154.669 125.583C154.228 125.03 153.795 124.47 153.375 123.904C151.974 122.03 150.661 120.103 149.456 118.109C143.664 108.504 141.012 97.2585 143.669 89.4997L143.717 89.3791C144.29 87.6801 145.194 86.111 146.377 84.762C152.435 77.9485 164.686 79.0843 175.803 84.5839C165.832 73.68 157.892 59.9211 157.289 47.6396C156.697 35.6603 162.967 27.1027 169.768 19.8302C169.991 19.5898 170.214 19.356 170.437 19.1223C170.545 19.0021 170.66 18.8886 170.768 18.7684C176.074 13.2262 182.26 7.76279 191.213 8.42369C201.033 9.1498 211.92 17.3668 219.554 26.9419C227.187 36.5103 232.26 47.3801 237.402 57.9884C242.55 68.5902 248.12 79.4628 256.382 88.5244C245.192 74.3849 236.17 58.2971 232.838 42.6506C229.505 27.0041 232.438 11.9767 242.411 4.60781C245.438 2.43965 248.942 1.02744 252.628 0.489368C253.058 0.417936 253.495 0.35995 253.939 0.308711C263.17 -0.740656 274.193 2.44911 283.571 10.0737C293.899 18.4689 301.06 30.9145 304.622 42.7291C308.185 54.5438 308.564 65.9177 308.449 76.913Z" fill="#F2F2F2"/>
<path d="M210.292 125.893L207.423 125.877C206.512 125.308 205.597 124.746 204.677 124.191C204.108 123.832 203.532 123.486 202.956 123.134C193.44 117.328 183.865 111.758 174.23 106.426C164.603 101.089 154.929 95.998 145.206 91.1528C144.948 91.0407 144.738 90.842 144.612 90.5911C144.485 90.3402 144.451 90.053 144.515 89.7795C144.525 89.7437 144.541 89.7098 144.562 89.6791C144.698 89.4248 145.001 89.319 145.444 89.5363C146.636 90.1337 147.836 90.7312 149.028 91.342C158.778 96.27 168.485 101.444 178.151 106.864C187.811 112.282 197.415 117.938 206.964 123.834C207.165 123.956 207.366 124.085 207.567 124.207C208.477 124.769 209.381 125.331 210.292 125.893Z" fill="white"/>
<path d="M247.282 126.1L245.508 126.09C245.108 125.53 244.715 124.971 244.315 124.411C234.914 111.242 225.516 98.0721 216.119 84.9024C200.731 63.3416 185.347 41.7809 169.968 20.2202C169.877 20.1041 169.809 19.9715 169.769 19.8297C169.637 19.3523 169.988 19.0723 170.438 19.1218C170.628 19.1489 170.809 19.2161 170.971 19.3188C171.133 19.4216 171.271 19.5576 171.375 19.7178C180.003 31.8091 188.628 43.8959 197.251 55.9782C212.559 77.4311 227.865 98.8818 243.169 120.33C244.142 121.692 245.116 123.06 246.089 124.421C246.489 124.981 246.889 125.54 247.282 126.1Z" fill="white"/>
<path d="M286.804 115.808C286.713 118.795 286.515 121.734 286.257 124.646C286.207 125.203 286.157 125.76 286.106 126.316L284.245 126.306C284.302 125.749 284.359 125.192 284.409 124.635C284.802 120.429 285.081 116.174 285.119 111.804C285.169 99.6886 283.987 87.5993 281.592 75.7223C279.046 62.9339 275.391 50.3913 270.667 38.2363C265.709 25.4167 259.732 13.0142 252.792 1.14791C252.662 0.954509 252.603 0.7212 252.628 0.489128C252.705 -0.0407943 253.411 -0.197949 253.939 0.308471C254.043 0.407828 254.133 0.521308 254.206 0.645601C255.065 2.12055 255.908 3.59988 256.735 5.0836C263.419 17.0158 269.139 29.4614 273.843 42.302C278.323 54.4967 281.731 67.0583 284.028 79.8442C286.179 91.706 287.11 103.757 286.804 115.808Z" fill="white"/>
<path d="M413.73 125.178H5.85918C4.30563 125.179 2.81611 125.796 1.7176 126.894C0.619097 127.991 0.00136286 129.479 0 131.031V407.146C0.00136286 408.698 0.619097 410.186 1.7176 411.284C2.81611 412.381 4.30563 412.998 5.85918 413H413.73C414.577 413 415.414 412.816 416.183 412.462C416.952 412.107 417.635 411.59 418.185 410.946C418.231 410.895 418.274 410.841 418.313 410.785C418.662 410.357 418.945 409.88 419.152 409.368C419.447 408.664 419.598 407.909 419.596 407.146V131.031C419.594 129.478 418.975 127.989 417.875 126.892C416.775 125.794 415.284 125.178 413.73 125.178ZM417.923 407.146C417.923 407.963 417.683 408.762 417.23 409.442C416.829 410.041 416.284 410.53 415.645 410.865C415.053 411.171 414.396 411.329 413.73 411.328H5.85918C4.74933 411.327 3.68534 410.886 2.90056 410.102C2.11579 409.318 1.6743 408.255 1.67295 407.146V131.031C1.6743 129.923 2.11579 128.86 2.90056 128.076C3.68534 127.292 4.74933 126.851 5.85918 126.849H413.73C414.841 126.849 415.906 127.289 416.692 128.074C417.479 128.858 417.921 129.922 417.923 131.031V407.146Z" fill="#3F3D56"/>
<path d="M418.756 148.639H0.834961V150.312H418.756V148.639Z" fill="#3F3D56"/>
<path d="M15.073 142.748C17.8482 142.748 20.0981 140.501 20.0981 137.728C20.0981 134.956 17.8482 132.708 15.073 132.708C12.2977 132.708 10.0479 134.956 10.0479 137.728C10.0479 140.501 12.2977 142.748 15.073 142.748Z" fill="#3F3D56"/>
<path d="M29.5202 142.748C32.2955 142.748 34.5453 140.501 34.5453 137.728C34.5453 134.956 32.2955 132.708 29.5202 132.708C26.7449 132.708 24.4951 134.956 24.4951 137.728C24.4951 140.501 26.7449 142.748 29.5202 142.748Z" fill="#3F3D56"/>
<path d="M43.9675 142.748C46.7428 142.748 48.9926 140.501 48.9926 137.728C48.9926 134.956 46.7428 132.708 43.9675 132.708C41.1922 132.708 38.9424 134.956 38.9424 137.728C38.9424 140.501 41.1922 142.748 43.9675 142.748Z" fill="#3F3D56"/>
<path d="M314.684 187.374H105.038C102.721 187.374 100.499 186.455 98.8608 184.818C97.2226 183.182 96.3022 180.962 96.3022 178.648C96.3022 176.333 97.2226 174.113 98.8608 172.477C100.499 170.84 102.721 169.921 105.038 169.921H314.684C317.001 169.921 319.223 170.84 320.861 172.477C322.499 174.113 323.42 176.333 323.42 178.648C323.42 180.962 322.499 183.182 320.861 184.818C319.223 186.455 317.001 187.374 314.684 187.374ZM105.038 171.263C103.077 171.263 101.197 172.041 99.811 173.426C98.4249 174.811 97.6461 176.689 97.6461 178.648C97.6461 180.606 98.4249 182.484 99.811 183.869C101.197 185.254 103.077 186.032 105.038 186.032H314.684C316.645 186.032 318.525 185.254 319.911 183.869C321.297 182.484 322.076 180.606 322.076 178.648C322.076 176.689 321.297 174.811 319.911 173.426C318.525 172.041 316.645 171.263 314.684 171.263H105.038Z" fill="#3F3D56"/>
<path d="M122.445 289.825H41.8112C38.7827 289.822 35.8792 288.618 33.7377 286.479C31.5962 284.34 30.3916 281.439 30.3882 278.413V240.821C30.3916 237.796 31.5962 234.895 33.7377 232.755C35.8792 230.616 38.7827 229.413 41.8112 229.409H122.445C125.473 229.413 128.377 230.616 130.518 232.755C132.66 234.895 133.864 237.796 133.868 240.821V278.413C133.864 281.439 132.66 284.34 130.518 286.479C128.377 288.618 125.473 289.822 122.445 289.825Z" fill="#FFCA2E"/>
<path d="M250.114 289.825H169.481C166.452 289.822 163.549 288.618 161.407 286.479C159.266 284.34 158.061 281.439 158.058 278.413V240.821C158.061 237.796 159.266 234.895 161.407 232.755C163.549 230.616 166.452 229.413 169.481 229.409H250.114C253.143 229.413 256.046 230.616 258.188 232.755C260.329 234.895 261.534 237.796 261.537 240.821V278.413C261.534 281.439 260.329 284.34 258.188 286.479C256.046 288.618 253.143 289.822 250.114 289.825Z" fill="#FFCA2E"/>
<path d="M377.783 289.825H297.15C294.122 289.822 291.218 288.618 289.077 286.479C286.935 284.34 285.73 281.439 285.727 278.413V240.821C285.73 237.796 286.935 234.895 289.077 232.755C291.218 230.616 294.122 229.413 297.15 229.409H377.783C380.812 229.413 383.716 230.616 385.857 232.755C387.999 234.895 389.203 237.796 389.207 240.821V278.413C389.203 281.439 387.999 284.34 385.857 286.479C383.716 288.618 380.812 289.822 377.783 289.825Z" fill="#FFCA2E"/>
<path d="M122.445 369.037H41.8112C38.7827 369.034 35.8792 367.83 33.7377 365.691C31.5962 363.551 30.3916 360.651 30.3882 357.625V320.033C30.3916 317.007 31.5962 314.107 33.7377 311.967C35.8792 309.828 38.7827 308.624 41.8112 308.621H122.445C125.473 308.624 128.377 309.828 130.518 311.967C132.66 314.107 133.864 317.007 133.868 320.033V357.625C133.864 360.651 132.66 363.551 130.518 365.691C128.377 367.83 125.473 369.034 122.445 369.037Z" fill="#FFCA2E"/>
<path d="M250.114 369.037H169.481C166.452 369.034 163.549 367.83 161.407 365.691C159.266 363.552 158.061 360.651 158.058 357.625V320.033C158.061 317.007 159.266 314.107 161.407 311.967C163.549 309.828 166.452 308.624 169.481 308.621H250.114C253.143 308.624 256.046 309.828 258.188 311.967C260.329 314.107 261.534 317.007 261.537 320.033V357.625C261.534 360.651 260.329 363.551 258.188 365.691C256.046 367.83 253.143 369.034 250.114 369.037Z" fill="#FFCA2E"/>
<path d="M377.783 369.037H297.15C294.122 369.034 291.218 367.83 289.077 365.691C286.935 363.551 285.73 360.651 285.727 357.625V320.033C285.73 317.007 286.935 314.107 289.077 311.967C291.218 309.828 294.122 308.624 297.15 308.621H377.783C380.812 308.624 383.716 309.828 385.857 311.967C387.999 314.107 389.203 317.007 389.207 320.033V357.625C389.203 360.651 387.999 363.551 385.857 365.691C383.716 367.83 380.812 369.034 377.783 369.037Z" fill="#FFCA2E"/>
<path d="M468.423 189.131C480.67 189.131 490.597 179.213 490.597 166.979C490.597 154.744 480.67 144.826 468.423 144.826C456.177 144.826 446.249 154.744 446.249 166.979C446.249 179.213 456.177 189.131 468.423 189.131Z" fill="#2F2E41"/>
<path d="M412.872 282.218C412.38 281.285 412.1 280.256 412.05 279.203C412 278.15 412.181 277.099 412.582 276.123C412.982 275.148 413.592 274.272 414.368 273.558C415.144 272.843 416.068 272.307 417.073 271.988L445.171 212.606L458.024 221.61L426.363 277.149C426.788 278.873 426.566 280.692 425.738 282.263C424.91 283.833 423.534 285.046 421.871 285.671C420.208 286.295 418.373 286.289 416.715 285.653C415.056 285.016 413.689 283.795 412.872 282.218Z" fill="#FFB8B8"/>
<path d="M436.949 220.49C436.815 220.045 436.779 219.577 436.843 219.117C436.907 218.656 437.07 218.215 437.32 217.824L446.056 204.141C447.028 201.971 448.82 200.274 451.042 199.422C453.264 198.571 455.733 198.634 457.908 199.598C460.083 200.562 461.787 202.348 462.646 204.565C463.504 206.782 463.448 209.249 462.489 211.425L458.089 227.101C457.963 227.549 457.742 227.964 457.442 228.318C457.141 228.673 456.767 228.959 456.346 229.156C455.925 229.353 455.466 229.457 455.001 229.462C454.536 229.466 454.076 229.37 453.651 229.18L438.728 222.514C438.303 222.324 437.925 222.045 437.618 221.696C437.311 221.347 437.083 220.936 436.949 220.49Z" fill="#FFCA2E"/>
<path d="M507.648 288.106C506.62 287.867 505.657 287.407 504.827 286.756C503.996 286.105 503.319 285.281 502.842 284.34C502.365 283.4 502.1 282.367 502.066 281.313C502.032 280.259 502.23 279.211 502.646 278.242L476.035 218.18L491.258 214.35L512.628 274.593C514.212 275.398 515.444 276.756 516.093 278.408C516.741 280.061 516.76 281.894 516.146 283.559C515.532 285.225 514.328 286.608 512.762 287.446C511.196 288.284 509.376 288.519 507.648 288.106V288.106Z" fill="#FFB8B8"/>
<path d="M514.901 396.973L507.16 399.789L492.606 371.3L504.03 367.145L514.901 396.973Z" fill="#FFB8B8"/>
<path d="M500.826 399.59L515.754 394.16L519.177 403.55L494.849 412.399C494.399 411.166 494.197 409.856 494.254 408.545C494.312 407.234 494.627 405.947 495.182 404.758C495.737 403.568 496.521 402.5 497.489 401.613C498.458 400.726 499.591 400.039 500.826 399.59Z" fill="#2F2E41"/>
<path d="M493.77 378.953L464.28 327.397C463.995 326.898 463.848 326.332 463.854 325.758C463.86 325.184 464.019 324.621 464.315 324.129L477.594 302.018C477.909 301.494 478.366 301.069 478.913 300.794C479.46 300.519 480.073 300.404 480.682 300.463C481.292 300.523 481.872 300.753 482.355 301.128C482.839 301.504 483.206 302.008 483.414 302.583L508.52 372.04C508.796 372.796 508.779 373.628 508.472 374.373C508.165 375.117 507.591 375.719 506.861 376.061L497.965 380.271C497.536 380.474 497.067 380.579 496.592 380.579C496.02 380.58 495.458 380.43 494.962 380.144C494.467 379.859 494.055 379.448 493.77 378.953Z" fill="#2F2E41"/>
<path d="M466.404 191.183C475.519 191.183 482.908 183.801 482.908 174.696C482.908 165.59 475.519 158.208 466.404 158.208C457.289 158.208 449.9 165.59 449.9 174.696C449.9 183.801 457.289 191.183 466.404 191.183Z" fill="#FFB8B8"/>
<path d="M442.929 249.377C429.932 220.587 443.035 204.496 449.271 198.914C451.068 197.304 453.396 196.414 455.809 196.416H479.058C480.728 196.416 482.37 196.842 483.828 197.654C485.286 198.467 486.512 199.638 487.39 201.057C488.268 202.475 488.768 204.095 488.843 205.761C488.918 207.427 488.565 209.085 487.819 210.577L472.277 241.63L443.055 249.658L442.929 249.377Z" fill="#FFCA2E"/>
<path d="M476.941 228.944C476.516 228.754 476.138 228.475 475.831 228.126C475.524 227.776 475.297 227.365 475.163 226.92L470.511 211.371C469.503 209.218 469.391 206.754 470.198 204.519C471.006 202.283 472.667 200.459 474.819 199.445C476.97 198.431 479.436 198.311 481.677 199.11C483.917 199.909 485.749 201.563 486.771 203.709L495.768 217.284C496.025 217.672 496.195 218.11 496.267 218.569C496.339 219.028 496.311 219.497 496.185 219.945C496.059 220.392 495.838 220.807 495.538 221.161C495.237 221.516 494.863 221.801 494.442 221.998L479.636 228.921C479.215 229.119 478.756 229.223 478.291 229.227C477.826 229.23 477.365 229.134 476.941 228.944Z" fill="#FFCA2E"/>
<path d="M461.725 404.757L453.487 404.757L449.568 373.013L461.727 373.013L461.725 404.757Z" fill="#FFB8B8"/>
<path d="M447.603 402.405H463.49V412.399H437.6C437.6 411.086 437.858 409.787 438.361 408.574C438.864 407.362 439.601 406.26 440.529 405.332C441.458 404.404 442.561 403.668 443.775 403.166C444.988 402.664 446.289 402.405 447.603 402.405Z" fill="#2F2E41"/>
<path d="M458.234 392.639L445.045 391.119C444.618 391.07 444.205 390.936 443.831 390.726C443.456 390.515 443.127 390.233 442.863 389.894C442.599 389.555 442.405 389.167 442.292 388.753C442.18 388.339 442.151 387.906 442.207 387.481L453.979 298.938C454.02 298.629 454.003 298.316 453.93 298.013L442.098 249.248C441.986 248.798 441.974 248.329 442.061 247.874C442.149 247.419 442.334 246.989 442.605 246.612C444.439 244.085 450.726 238.197 469.425 238.085H469.445C470.068 238.085 470.678 238.264 471.201 238.6C471.725 238.937 472.141 239.416 472.4 239.982L474.894 245.464C475.08 245.871 475.371 246.222 475.736 246.48C479.169 248.907 495.802 262.535 486.036 292.455C476.437 321.863 464.139 378.954 461.771 390.1C461.62 390.825 461.223 391.475 460.648 391.941C460.073 392.408 459.355 392.662 458.614 392.661C458.487 392.661 458.36 392.653 458.234 392.639Z" fill="#2F2E41"/>
<path d="M483.746 164.325C479.974 166.922 475.498 168.304 470.918 168.286C472.551 169.417 474.411 170.182 476.37 170.526C470.28 171.831 463.986 171.867 457.882 170.63C456.525 170.413 455.216 169.964 454.011 169.302C453.411 168.967 452.889 168.51 452.477 167.96C452.065 167.41 451.774 166.78 451.623 166.11C451.217 163.795 453.022 161.692 454.899 160.275C457.772 158.138 461.084 156.665 464.597 155.964C468.109 155.263 471.734 155.351 475.208 156.22C477.477 156.806 479.749 157.796 481.223 159.616C482.697 161.436 483.133 164.242 481.729 166.117L483.746 164.325Z" fill="#2F2E41"/>
<path d="M472.727 152.856C470.842 152.229 468.902 151.571 467.408 150.262C465.914 148.954 464.966 146.813 465.637 144.945C466.284 143.145 468.256 142.093 470.165 141.951C472.074 141.81 473.953 142.4 475.776 142.984C474.952 141.739 474.1 139.326 473.354 136.78C471.653 130.972 478.743 125.669 484.785 126.106C484.963 126.119 485.135 126.138 485.302 126.162C491.393 127.05 494.554 129.371 498.808 133.817C504.131 139.377 506.914 146.881 508.778 154.346C510.642 161.811 511.737 169.493 514.358 176.727C516.98 183.962 521.402 190.916 528.164 194.598C531.868 196.548 536.037 197.444 540.215 197.186C544.394 196.929 548.421 195.529 551.857 193.14C552.325 196.317 552.037 199.559 551.016 202.604C549.995 205.649 548.27 208.411 545.982 210.666C543.693 212.92 540.904 214.604 537.842 215.581C534.78 216.558 531.531 216.8 528.358 216.288C519.628 214.88 512.635 207.855 508.899 199.848C505.164 191.84 504.144 182.877 503.207 174.092C502.27 165.308 501.321 156.348 497.707 148.284C496.245 145.021 494.091 141.7 490.244 141.179C489.239 141.015 488.208 141.187 487.311 141.667C486.414 142.148 485.7 142.91 485.28 143.837C483.588 147.927 489.376 151.391 487.893 155.29C487.572 156.044 487.041 156.691 486.363 157.153C485.685 157.616 484.889 157.875 484.069 157.899C481.271 158.083 478.972 156.481 476.807 154.934C472.378 151.771 472.727 152.856 472.727 152.856Z" fill="#2F2E41"/>
<path d="M569.328 413H414.78C414.602 413 414.431 412.929 414.305 412.803C414.179 412.677 414.108 412.507 414.108 412.329C414.108 412.15 414.179 411.98 414.305 411.854C414.431 411.728 414.602 411.657 414.78 411.657H569.328C569.506 411.657 569.677 411.728 569.803 411.854C569.929 411.98 570 412.15 570 412.329C570 412.507 569.929 412.677 569.803 412.803C569.677 412.929 569.506 413 569.328 413Z" fill="#3F3D56"/>
</g>
<defs>
<clipPath id="clip0">
<rect width="570" height="413" fill="white"/>
</clipPath>
</defs>
</svg>
