<svg width="570" height="412" viewBox="0 0 570 412" fill="none" xmlns="http://www.w3.org/2000/svg">
<g clip-path="url(#clip0)">
<path d="M25.2786 400.248C43.0454 412.203 66.0699 412.803 88.3256 411.334C91.4333 411.13 94.5191 410.889 97.5762 410.63C97.5947 410.626 97.6189 410.627 97.6377 410.623C97.7846 410.61 97.9318 410.597 98.0724 410.589C98.7034 410.534 99.3347 410.479 99.9598 410.423L99.8121 410.686L99.3486 411.503C99.5152 411.23 99.6816 410.962 99.8482 410.689C99.8972 410.607 99.9521 410.525 100.001 410.443C105.766 401.072 111.485 391.357 112.943 380.656C114.451 369.549 110.214 356.973 99.7479 351.514C98.3754 350.8 96.9218 350.231 95.4143 349.819C94.7884 349.641 94.154 349.497 93.5124 349.369C89.5873 348.555 85.501 348.732 81.6734 349.882C77.8459 351.032 74.4154 353.114 71.7347 355.913C69.0539 358.712 67.2197 362.127 66.4206 365.807C65.6215 369.488 65.8863 373.301 67.1879 376.854C58.3149 368.356 59.9701 354.569 63.0308 343.048C66.0975 331.526 69.81 318.705 63.5727 308.357C60.1054 302.596 54.008 299.023 47.1653 297.583C46.9554 297.541 46.7458 297.498 46.5354 297.462C38.3825 295.919 29.9067 297.307 22.801 301.346C9.71714 309.047 2.99709 323.648 0.816055 337.952C-2.69801 360.968 5.07867 386.655 25.2786 400.248Z" fill="#F2F2F2"/>
<path d="M31.015 363.351C31.5308 368.428 32.8365 373.408 34.8909 378.133C36.7842 382.314 39.3361 386.207 42.4621 389.683C48.8477 396.858 57.2913 402.252 66.4612 405.846C73.4728 408.529 80.8192 410.372 88.3258 411.334C91.4335 411.129 94.5192 410.888 97.5763 410.629C97.5948 410.625 97.619 410.626 97.6378 410.622C97.7847 410.609 97.9319 410.596 98.0725 410.588C98.7035 410.533 99.3348 410.478 99.9599 410.422L99.8122 410.685L99.3488 411.502C99.5153 411.229 99.6817 410.961 99.8483 410.688C99.8973 410.606 99.9522 410.524 100.001 410.442C94.3732 405.205 90.1715 398.784 87.7477 391.718C85.3239 384.652 84.7487 377.146 86.0704 369.829C87.4534 362.564 90.6551 355.707 95.4144 349.818C94.7885 349.64 94.1541 349.496 93.5125 349.368C91.7038 351.678 90.1172 354.133 88.7713 356.703C83.942 365.871 82.4013 376.247 84.3772 386.297C86.2142 395.39 90.7909 403.806 97.5698 410.555C96.9762 410.516 96.3768 410.471 95.7903 410.421C84.6809 409.542 73.5942 407.311 63.5179 402.742C54.9048 398.931 47.4273 393.2 41.7438 386.054C35.6412 378.193 32.9521 368.738 32.4901 359.127C32.0003 348.839 33.4296 338.369 35.9435 328.363C38.5105 318.106 42.4117 308.18 47.5601 298.808C47.6753 298.595 47.6985 298.349 47.625 298.121C47.5516 297.893 47.3871 297.7 47.1655 297.582C46.9808 297.466 46.7544 297.422 46.5356 297.461C46.4285 297.488 46.3292 297.536 46.2451 297.604C46.161 297.671 46.0942 297.755 46.0497 297.85C45.4146 299.008 44.7913 300.166 44.1917 301.338C39.1979 311.096 35.5213 321.396 33.2465 332.001C31.0381 342.231 29.8593 352.933 31.015 363.351Z" fill="white"/>
<path d="M558.569 354.22H264.725C261.694 354.216 258.789 353.09 256.646 351.089C254.503 349.087 253.297 346.373 253.294 343.543V10.6768C253.297 7.84614 254.503 5.13229 256.646 3.13069C258.789 1.12909 261.694 0.00318664 264.725 0H558.569C561.6 0.00318664 564.506 1.12909 566.649 3.13069C568.792 5.13229 569.997 7.84614 570 10.6768V343.543C569.997 346.373 568.792 349.087 566.649 351.089C564.506 353.09 561.6 354.216 558.569 354.22ZM264.725 1.2561C262.051 1.25892 259.487 2.25237 257.596 4.01848C255.705 5.7846 254.642 8.17916 254.639 10.6768V343.543C254.642 346.04 255.705 348.435 257.596 350.201C259.487 351.967 262.051 352.961 264.725 352.963H558.569C561.243 352.961 563.807 351.967 565.698 350.201C567.589 348.435 568.653 346.04 568.656 343.543V10.6768C568.653 8.17916 567.589 5.7846 565.698 4.01848C563.807 2.25237 561.243 1.25892 558.569 1.2561H264.725Z" fill="#3F3D56"/>
<path d="M569.328 26.1211H253.966V27.3772H569.328V26.1211Z" fill="#3F3D56"/>
<path d="M269.432 18.8418C272.403 18.8418 274.811 16.5923 274.811 13.8174C274.811 11.0425 272.403 8.79297 269.432 8.79297C266.461 8.79297 264.052 11.0425 264.052 13.8174C264.052 16.5923 266.461 18.8418 269.432 18.8418Z" fill="#3F3D56"/>
<path d="M286.242 18.8418C289.213 18.8418 291.621 16.5923 291.621 13.8174C291.621 11.0425 289.213 8.79297 286.242 8.79297C283.271 8.79297 280.863 11.0425 280.863 13.8174C280.863 16.5923 283.271 18.8418 286.242 18.8418Z" fill="#3F3D56"/>
<path d="M303.052 18.8418C306.023 18.8418 308.432 16.5923 308.432 13.8174C308.432 11.0425 306.023 8.79297 303.052 8.79297C300.081 8.79297 297.673 11.0425 297.673 13.8174C297.673 16.5923 300.081 18.8418 303.052 18.8418Z" fill="#3F3D56"/>
<path d="M513.019 75.9943H303.226C300.908 75.9943 298.685 75.1341 297.045 73.6029C295.406 72.0718 294.485 69.9951 294.485 67.8297C294.485 65.6643 295.406 63.5876 297.045 62.0564C298.685 60.5252 300.908 59.665 303.226 59.665H513.019C515.338 59.665 517.561 60.5252 519.201 62.0564C520.84 63.5876 521.761 65.6643 521.761 67.8297C521.761 69.9951 520.84 72.0718 519.201 73.6029C517.561 75.1341 515.338 75.9943 513.019 75.9943ZM303.226 60.9211C301.265 60.9211 299.383 61.649 297.996 62.9446C296.609 64.2402 295.83 65.9974 295.83 67.8297C295.83 69.6619 296.609 71.4191 297.996 72.7147C299.383 74.0103 301.265 74.7382 303.226 74.7382H513.019C514.981 74.7382 516.863 74.0103 518.25 72.7147C519.637 71.4191 520.416 69.6619 520.416 67.8297C520.416 65.9974 519.637 64.2402 518.25 62.9446C516.863 61.649 514.981 60.9211 513.019 60.9211H303.226Z" fill="#3F3D56"/>
<path d="M381.725 190.927H299.018C295.987 190.924 293.082 189.798 290.939 187.797C288.796 185.795 287.59 183.081 287.587 180.25V116.817C287.59 113.987 288.796 111.273 290.939 109.271C293.082 107.27 295.987 106.144 299.018 106.141H381.725C384.755 106.144 387.661 107.27 389.804 109.271C391.947 111.273 393.152 113.987 393.156 116.817V180.25C393.152 183.081 391.947 185.795 389.804 187.797C387.661 189.798 384.755 190.924 381.725 190.927ZM299.018 107.397C296.344 107.4 293.78 108.393 291.889 110.159C289.998 111.925 288.935 114.32 288.932 116.817V180.25C288.935 182.748 289.998 185.143 291.889 186.909C293.78 188.675 296.344 189.668 299.018 189.671H381.725C384.399 189.668 386.963 188.675 388.854 186.909C390.744 185.143 391.808 182.748 391.811 180.25V116.817C391.808 114.32 390.744 111.925 388.854 110.159C386.963 108.393 384.399 107.4 381.725 107.397H299.018Z" fill="#3F3D56"/>
<path d="M524.276 109.28H441.57C435.628 109.28 430.811 113.779 430.811 119.329V182.762C430.811 188.312 435.628 192.811 441.57 192.811H524.276C530.218 192.811 535.035 188.312 535.035 182.762V119.329C535.035 113.779 530.218 109.28 524.276 109.28Z" fill="#F2F2F2"/>
<path d="M381.725 309H299.018C295.987 308.997 293.082 307.871 290.939 305.87C288.796 303.868 287.59 301.154 287.587 298.324V234.891C287.59 232.06 288.796 229.346 290.939 227.345C293.082 225.343 295.987 224.217 299.018 224.214H381.725C384.755 224.217 387.661 225.343 389.804 227.345C391.947 229.346 393.152 232.06 393.156 234.891V298.324C393.152 301.154 391.947 303.868 389.804 305.87C387.661 307.871 384.755 308.997 381.725 309ZM299.018 225.47C296.344 225.473 293.78 226.466 291.889 228.232C289.998 229.998 288.935 232.393 288.932 234.891V298.324C288.935 300.821 289.998 303.216 291.889 304.982C293.78 306.748 296.344 307.742 299.018 307.744H381.725C384.399 307.742 386.963 306.748 388.854 304.982C390.744 303.216 391.808 300.821 391.811 298.324V234.891C391.808 232.393 390.744 229.998 388.854 228.232C386.963 226.466 384.399 225.473 381.725 225.47H299.018Z" fill="#3F3D56"/>
<path d="M524.276 227.354H441.57C435.628 227.354 430.811 231.853 430.811 237.402V300.835C430.811 306.385 435.628 310.884 441.57 310.884H524.276C530.218 310.884 535.035 306.385 535.035 300.835V237.402C535.035 231.853 530.218 227.354 524.276 227.354Z" fill="#F2F2F2"/>
<path d="M319.79 175.585C319.775 175.585 319.76 175.585 319.745 175.584L310.338 175.259C310.045 175.251 309.765 175.143 309.549 174.957C309.334 174.771 309.198 174.518 309.166 174.246C308.519 168.85 305.854 141.354 317.017 129.926C318.597 128.276 320.55 126.975 322.735 126.118C324.92 125.26 327.282 124.868 329.65 124.97C329.746 124.975 329.842 124.956 329.928 124.915C330.013 124.873 330.085 124.81 330.135 124.733L332.412 121.391C332.537 121.21 332.713 121.065 332.922 120.973C333.13 120.88 333.362 120.844 333.591 120.869C335.417 121.075 344.723 122.048 348.637 120.989C348.868 120.926 349.114 120.927 349.344 120.993C349.574 121.059 349.778 121.187 349.93 121.361L352.921 124.775C352.972 124.837 353.039 124.886 353.114 124.919C353.19 124.952 353.274 124.967 353.357 124.964C354.878 124.935 360.212 125.21 364.879 130.087C369.933 135.367 375.15 147.28 371.296 174.047C371.256 174.322 371.111 174.575 370.887 174.757C370.664 174.94 370.377 175.042 370.08 175.043H362.671C362.377 175.041 362.093 174.942 361.87 174.762C361.648 174.582 361.502 174.334 361.458 174.063L359.038 158.464C359.018 158.336 358.947 158.22 358.84 158.138C358.732 158.056 358.595 158.015 358.457 158.023C358.318 158.031 358.188 158.087 358.092 158.181C357.996 158.274 357.941 158.398 357.938 158.528L357.771 165.851C357.766 166.068 357.695 166.28 357.566 166.461C357.437 166.641 357.256 166.784 357.043 166.873C354.402 167.957 340.446 173.045 325.021 166.673C324.813 166.586 324.634 166.446 324.506 166.269C324.377 166.092 324.304 165.886 324.293 165.672L323.99 159.018C323.984 158.888 323.926 158.765 323.827 158.674C323.728 158.582 323.596 158.529 323.457 158.524C323.318 158.52 323.182 158.564 323.077 158.649C322.971 158.734 322.904 158.853 322.888 158.982L321.008 174.569C320.973 174.848 320.83 175.105 320.606 175.293C320.381 175.48 320.091 175.584 319.79 175.585Z" fill="#FFCA2E"/>
<path d="M358.705 290.497H358.698L321.836 290.279C321.568 290.277 321.309 290.184 321.11 290.017C320.91 289.85 320.782 289.62 320.751 289.372L317.043 259.933C317.02 259.743 316.925 259.567 316.774 259.438C316.624 259.308 316.428 259.234 316.224 259.228C313.297 259.139 306.335 258.516 304.892 254.667C303.607 251.239 307.122 246.182 315.338 239.637C315.478 239.525 315.645 239.448 315.825 239.412C316.005 239.377 316.192 239.384 316.368 239.433C316.544 239.482 316.705 239.571 316.834 239.693C316.964 239.815 317.059 239.965 317.11 240.13L321.376 253.875C321.428 254.04 321.535 254.185 321.682 254.289C321.829 254.393 322.007 254.45 322.191 254.452L357.143 254.671C357.326 254.672 357.505 254.619 357.653 254.518C357.801 254.417 357.91 254.275 357.964 254.111L362.71 240.007C362.763 239.849 362.856 239.706 362.98 239.589C363.105 239.472 363.258 239.385 363.426 239.335C363.595 239.285 363.773 239.274 363.947 239.302C364.121 239.331 364.285 239.398 364.426 239.498C367.664 241.808 378.097 249.74 376.38 254.812C375.481 257.469 371.424 258.95 364.323 259.214C364.119 259.22 363.925 259.295 363.775 259.425C363.625 259.554 363.53 259.729 363.507 259.919L359.797 289.589C359.766 289.839 359.638 290.07 359.436 290.237C359.235 290.404 358.975 290.497 358.705 290.497Z" fill="#FFCA2E"/>
<path d="M520.242 166.529C508.659 168.612 497.735 173.131 488.299 179.743C487.821 178.556 486.922 177.559 485.752 176.917C484.953 176.454 484.08 176.112 483.167 175.903C482.336 175.705 481.538 176.177 480.805 176.857C479.961 177.728 479.254 178.707 478.703 179.763C466.044 171.647 446.841 166.468 446.841 166.468V164.845C446.857 164.463 446.899 164.081 446.966 163.704C447.031 163.268 447.113 162.882 447.216 162.411C448.845 154.67 455.286 136.983 455.286 136.983H462.568L476.688 139.722L492.573 138.814L508.572 135.705L510.646 135.299C514.105 137.835 518.032 155.588 519.574 163.146C519.77 164.105 519.922 164.896 520.036 165.479C520.171 166.139 520.242 166.529 520.242 166.529Z" fill="white"/>
<path d="M476.787 244.448C476.787 244.448 473.404 245.238 468.158 258.509C462.912 271.781 461.054 288.928 461.054 288.928C461.054 288.928 458.104 293.594 470.695 293.906C470.695 293.906 469.682 296.987 476.787 296.514C483.891 296.041 482.869 296.046 482.869 296.046C482.869 296.046 487.436 293.359 489.467 293.832C491.497 294.305 492.766 294.466 494.963 296.202C497.161 297.938 504.187 297.231 504.27 295.89C504.327 295.231 504.327 294.569 504.27 293.911C504.27 293.911 515.013 294.544 512.983 287.275C510.952 280.005 509.261 268.075 509.261 268.075C509.261 268.075 503.764 244.769 497.5 244.453C491.237 244.136 476.787 244.448 476.787 244.448Z" fill="white"/>
<path d="M129.534 222.075C140.675 222.075 149.706 213.64 149.706 203.234C149.706 192.828 140.675 184.393 129.534 184.393C118.393 184.393 109.361 192.828 109.361 203.234C109.361 213.64 118.393 222.075 129.534 222.075Z" fill="#2F2E41"/>
<path d="M131.229 222.111C140.35 222.111 147.744 215.205 147.744 206.685C147.744 198.166 140.35 191.26 131.229 191.26C122.107 191.26 114.713 198.166 114.713 206.685C114.713 215.205 122.107 222.111 131.229 222.111Z" fill="#FFB8B8"/>
<path d="M194.124 253.605C193.862 253.851 193.621 254.117 193.403 254.399L160.077 253.299L156.265 246.622L144.725 250.678L150.243 263.111C150.689 264.115 151.472 264.957 152.473 265.511C153.475 266.064 154.642 266.3 155.8 266.181L193.511 262.313C194.388 263.373 195.588 264.158 196.954 264.565C198.32 264.971 199.786 264.98 201.157 264.589C202.528 264.199 203.739 263.427 204.629 262.378C205.519 261.329 206.047 260.052 206.141 258.716C206.235 257.38 205.891 256.049 205.155 254.9C204.42 253.751 203.327 252.838 202.023 252.283C200.718 251.729 199.264 251.558 197.853 251.794C196.442 252.03 195.141 252.662 194.124 253.605H194.124Z" fill="#FFB8B8"/>
<path d="M140.286 256.681C139.862 256.503 139.483 256.241 139.176 255.914C138.87 255.587 138.642 255.202 138.509 254.786L133.868 240.234C132.86 238.219 132.748 235.913 133.558 233.821C134.368 231.729 136.032 230.023 138.187 229.076C140.342 228.129 142.811 228.019 145.052 228.769C147.294 229.52 149.126 231.07 150.146 233.08L159.137 245.788C159.394 246.151 159.564 246.561 159.635 246.991C159.707 247.42 159.678 247.859 159.552 248.277C159.426 248.696 159.204 249.084 158.903 249.415C158.601 249.746 158.227 250.013 157.805 250.197L142.984 256.662C142.562 256.846 142.103 256.943 141.637 256.946C141.172 256.95 140.711 256.859 140.286 256.681Z" fill="#FFCA2E"/>
<path d="M173.111 404.417L180.351 400.736L168.594 372.899L157.908 378.333L173.111 404.417Z" fill="#FFB8B8"/>
<path d="M169.977 403.148L184.236 395.898L184.236 395.898C185.43 395.291 186.739 394.91 188.09 394.776C189.441 394.642 190.808 394.758 192.111 395.117C193.414 395.476 194.628 396.071 195.685 396.869C196.742 397.666 197.62 398.651 198.27 399.765L198.43 400.041L175.085 411.911L169.977 403.148Z" fill="#2F2E41"/>
<path d="M93.4376 404.447H101.681L105.603 374.748L93.4355 374.749L93.4376 404.447Z" fill="#FFB8B8"/>
<path d="M91.3347 401.934L107.569 401.934H107.57C108.929 401.934 110.274 402.183 111.529 402.669C112.785 403.155 113.925 403.867 114.886 404.764C115.847 405.661 116.609 406.726 117.129 407.899C117.648 409.071 117.916 410.328 117.916 411.597V411.911L91.3352 411.912L91.3347 401.934Z" fill="#2F2E41"/>
<path d="M144.664 272.634L147.353 302.78L177.355 386.848C177.473 387.179 177.516 387.529 177.482 387.876C177.447 388.223 177.336 388.559 177.154 388.864C176.973 389.168 176.726 389.434 176.428 389.645C176.131 389.855 175.79 390.006 175.427 390.086L166.231 392.131C165.643 392.262 165.024 392.204 164.475 391.966C163.926 391.727 163.479 391.323 163.207 390.818L124.85 319.753C124.725 319.521 124.526 319.331 124.281 319.209C124.036 319.088 123.756 319.04 123.48 319.072C123.205 319.104 122.947 319.216 122.742 319.391C122.537 319.566 122.395 319.796 122.335 320.049L105.455 391.874C105.324 392.433 104.991 392.934 104.514 393.293C104.036 393.651 103.441 393.847 102.828 393.847H94.2736C93.9173 393.848 93.5645 393.782 93.2358 393.653C92.907 393.525 92.6089 393.337 92.3588 393.1C92.1086 392.863 91.9115 392.582 91.7789 392.273C91.6462 391.964 91.5808 391.634 91.5863 391.301C92.3701 341.499 89.7842 284.75 110.371 275.774L113.733 267.609L144.664 272.634Z" fill="#2F2E41"/>
<path d="M112.763 269.748L109.297 250.166C108.723 246.955 109.024 243.661 110.172 240.587C111.32 237.513 113.278 234.759 115.865 232.577C118.395 230.417 121.465 228.886 124.795 228.126C128.124 227.366 131.605 227.401 134.916 228.228C135.112 228.277 135.309 228.328 135.506 228.38C139.58 229.469 143.197 231.7 145.87 234.772C148.543 237.843 150.142 241.607 150.452 245.554C151.113 254.058 150.521 266.395 143.944 276.875L143.816 277.079L112.763 269.748Z" fill="#FFCA2E"/>
<path d="M147.657 198.488C143.883 200.917 139.404 202.21 134.82 202.193C136.455 203.252 138.316 203.967 140.276 204.29C134.182 205.511 127.883 205.544 121.775 204.387C120.417 204.183 119.107 203.763 117.902 203.144C117.302 202.831 116.778 202.403 116.366 201.889C115.955 201.374 115.663 200.785 115.511 200.158C115.106 197.992 116.912 196.025 118.79 194.698C121.665 192.699 124.98 191.322 128.495 190.665C132.01 190.009 135.637 190.091 139.113 190.905C141.384 191.453 143.658 192.379 145.133 194.082C146.607 195.785 147.044 198.411 145.639 200.164L147.657 198.488Z" fill="#2F2E41"/>
<path d="M129.268 184.299C131.182 177.08 124.321 169.058 116.359 169.208C108.281 169.361 102.336 176.179 98.2502 182.689C94.1639 189.199 90.1029 196.579 82.6012 199.382C80.1188 200.31 77.4287 200.647 74.7722 200.365C72.1157 200.082 69.5757 199.188 67.3801 197.763C65.1845 196.338 63.4019 194.426 62.192 192.199C60.9821 189.972 60.3828 187.5 60.4478 185.003C59.4406 192.913 60.8361 201.47 66.297 207.588C71.758 213.705 81.9194 216.462 89.2232 212.351C93.3945 210.003 96.0608 205.922 98.2589 201.862C100.457 197.803 102.413 193.522 105.744 190.203C109.074 186.884 114.224 184.682 118.86 186.078C120.699 186.632 122.35 187.713 124.251 188.041C126.152 188.37 128.545 187.526 128.805 185.737L129.268 184.299Z" fill="#2F2E41"/>
<path d="M89.4641 315.212C88.7787 314.462 88.2777 313.58 87.9965 312.629C87.7152 311.679 87.6606 310.682 87.8364 309.709C88.0122 308.737 88.4142 307.812 89.0141 307C89.6139 306.188 90.3971 305.509 91.3083 305.011L105.634 245.034L120.167 250.605L101.515 307.809C102.31 309.294 102.494 311 102.033 312.604C101.571 314.207 100.496 315.597 99.0102 316.51C97.5248 317.422 95.7326 317.794 93.9732 317.555C92.2138 317.316 90.6095 316.482 89.4642 315.212H89.4641Z" fill="#FFB8B8"/>
<path d="M99.9572 253.637C99.7284 253.259 99.5898 252.839 99.5507 252.405C99.5117 251.972 99.5732 251.536 99.731 251.127L105.24 236.842C105.709 234.661 107.084 232.743 109.065 231.508C111.046 230.274 113.47 229.823 115.806 230.255C118.142 230.687 120.2 231.966 121.527 233.813C122.854 235.66 123.344 237.923 122.887 240.106L122.051 255.319C122.027 255.753 121.903 256.177 121.688 256.562C121.472 256.948 121.171 257.285 120.803 257.552C120.435 257.819 120.011 258.009 119.558 258.108C119.105 258.208 118.634 258.215 118.177 258.129L102.14 255.117C101.684 255.032 101.252 254.855 100.876 254.6C100.499 254.345 100.186 254.016 99.9572 253.637Z" fill="#FFCA2E"/>
<path d="M217.334 246.911L217.095 246.881L217.994 240.774C218.132 239.837 217.865 238.887 217.253 238.133C216.641 237.379 215.734 236.883 214.73 236.754L200.879 234.976C199.875 234.847 198.858 235.096 198.051 235.667C197.243 236.239 196.712 237.087 196.574 238.024L191.644 271.524C191.506 272.462 191.772 273.412 192.384 274.166C192.997 274.92 193.904 275.416 194.908 275.545L208.759 277.323C209.763 277.452 210.78 277.203 211.587 276.631C212.394 276.06 212.925 275.212 213.063 274.275L216.455 251.227L216.694 251.258L217.334 246.911Z" fill="#3F3D56"/>
<path d="M214.295 238.546L212.57 238.324C212.623 238.516 212.624 238.717 212.574 238.909C212.524 239.102 212.424 239.28 212.283 239.427C212.142 239.575 211.964 239.688 211.765 239.757C211.566 239.825 211.352 239.847 211.142 239.82L203.573 238.848C203.363 238.821 203.163 238.746 202.992 238.63C202.82 238.514 202.681 238.36 202.588 238.183C202.495 238.005 202.45 237.808 202.457 237.61C202.465 237.412 202.524 237.219 202.63 237.048L201.019 236.841C200.665 236.796 200.305 236.816 199.96 236.9C199.614 236.985 199.289 237.132 199.005 237.334C198.72 237.535 198.481 237.787 198.3 238.075C198.12 238.363 198.002 238.682 197.953 239.013L193.257 270.92C193.209 271.251 193.23 271.587 193.321 271.91C193.411 272.233 193.569 272.536 193.785 272.802C194.001 273.067 194.27 273.291 194.579 273.46C194.887 273.628 195.228 273.738 195.582 273.784L208.858 275.488C209.573 275.58 210.297 275.403 210.872 274.995C211.447 274.588 211.825 273.984 211.924 273.317L216.62 241.409C216.718 240.741 216.528 240.065 216.092 239.528C215.656 238.991 215.01 238.637 214.295 238.546L214.295 238.546Z" fill="white"/>
<path d="M204.88 265.037C208.965 265.037 212.276 261.944 212.276 258.128C212.276 254.313 208.965 251.22 204.88 251.22C200.795 251.22 197.483 254.313 197.483 258.128C197.483 261.944 200.795 265.037 204.88 265.037Z" fill="#FFCA2E"/>
<path d="M204.146 260.764C203.98 260.764 203.818 260.714 203.684 260.621L203.676 260.615L201.938 259.372C201.857 259.314 201.789 259.243 201.738 259.161C201.687 259.079 201.654 258.988 201.64 258.894C201.627 258.8 201.633 258.704 201.66 258.612C201.686 258.521 201.731 258.435 201.793 258.359C201.855 258.284 201.932 258.221 202.02 258.173C202.108 258.126 202.205 258.095 202.306 258.083C202.406 258.071 202.509 258.077 202.607 258.102C202.705 258.126 202.797 258.169 202.877 258.227L204.003 259.033L206.664 255.792C206.726 255.717 206.803 255.654 206.89 255.607C206.978 255.559 207.075 255.528 207.176 255.516C207.276 255.504 207.378 255.51 207.476 255.534C207.574 255.559 207.666 255.601 207.747 255.659L207.73 255.68L207.747 255.659C207.909 255.776 208.016 255.947 208.042 256.137C208.069 256.327 208.014 256.518 207.89 256.67L204.76 260.483C204.688 260.57 204.595 260.641 204.488 260.69C204.382 260.739 204.265 260.764 204.146 260.764Z" fill="white"/>
<path d="M273.05 412H16.8609C16.6826 412 16.5115 411.934 16.3854 411.816C16.2593 411.698 16.1885 411.539 16.1885 411.372C16.1885 411.206 16.2593 411.046 16.3854 410.928C16.5115 410.81 16.6826 410.744 16.8609 410.744H273.05C273.229 410.744 273.4 410.81 273.526 410.928C273.652 411.046 273.723 411.206 273.723 411.372C273.723 411.539 273.652 411.698 273.526 411.816C273.4 411.934 273.229 412 273.05 412Z" fill="#3F3D56"/>
</g>
<defs>
<clipPath id="clip0">
<rect width="570" height="412" fill="white"/>
</clipPath>
</defs>
</svg>
