<svg width="138" height="64" viewBox="0 0 138 64" fill="none" xmlns="http://www.w3.org/2000/svg">
<path d="M34.8667 10.6667V0L17.8 10.6667L34.8667 21.3333V10.6667Z" fill="black" fill-opacity="0.01"/>
<path d="M69 10.6667V0L51.9333 10.6667L69 21.3333V10.6667Z" fill="black" fill-opacity="0.01"/>
<path d="M103.133 10.6667V0L86.0667 10.6667L103.133 21.3333V10.6667Z" fill="black" fill-opacity="0.01"/>
<path d="M0.733337 0L17.8 10.6667V0H0.733337Z" fill="black" fill-opacity="0.01"/>
<path d="M34.8667 0L51.9333 10.6667V0H34.8667Z" fill="black" fill-opacity="0.01"/>
<path d="M69 0L86.0667 10.6667V0H69Z" fill="black" fill-opacity="0.01"/>
<path d="M103.133 0L120.2 10.6667V0H103.133Z" fill="black" fill-opacity="0.01"/>
<path d="M137.267 10.6667V0L120.2 10.6667L137.267 21.3333V10.6667Z" fill="black" fill-opacity="0.01"/>
<path d="M17.8 21.3332V10.6665L0.73332 21.3332L17.8 31.9998V21.3332Z" fill="black" fill-opacity="0.01"/>
<path d="M34.8667 32.0002V21.3335L17.8 32.0002L34.8667 42.6668V32.0002Z" fill="black" fill-opacity="0.01"/>
<path d="M51.9333 21.3332V10.6665L34.8667 21.3332L51.9333 31.9998V21.3332Z" fill="black" fill-opacity="0.01"/>
<path d="M69 32.0002V21.3335L51.9333 32.0002L69 42.6668V32.0002Z" fill="black" fill-opacity="0.01"/>
<path d="M86.0667 21.3332V10.6665L69 21.3332L86.0667 31.9998V21.3332Z" fill="black" fill-opacity="0.01"/>
<path d="M103.133 32.0002V21.3335L86.0667 32.0002L103.133 42.6668V32.0002Z" fill="black" fill-opacity="0.01"/>
<path d="M120.2 21.3332V10.6665L103.133 21.3332L120.2 31.9998V21.3332Z" fill="black" fill-opacity="0.01"/>
<path d="M137.267 32.0002V21.3335L120.2 32.0002L137.267 42.6668V32.0002Z" fill="black" fill-opacity="0.01"/>
<path d="M17.8 42.6667V32L0.73332 42.6667L17.8 53.3333V42.6667Z" fill="black" fill-opacity="0.01"/>
<path d="M34.8667 53.3332V42.6665L17.8 53.3332L34.8667 63.9998V53.3332Z" fill="black" fill-opacity="0.01"/>
<path d="M51.9333 42.6667V32L34.8667 42.6667L51.9333 53.3333V42.6667Z" fill="black" fill-opacity="0.01"/>
<path d="M69 53.3332V42.6665L51.9333 53.3332L69 63.9998V53.3332Z" fill="black" fill-opacity="0.01"/>
<path d="M86.0667 42.6667V32L69 42.6667L86.0667 53.3333V42.6667Z" fill="black" fill-opacity="0.01"/>
<path d="M103.133 53.3332V42.6665L86.0667 53.3332L103.133 63.9998V53.3332Z" fill="black" fill-opacity="0.01"/>
<path d="M120.2 42.6667V32L103.133 42.6667L120.2 53.3333V42.6667Z" fill="black" fill-opacity="0.01"/>
<path d="M137.267 53.3332V42.6665L120.2 53.3332L137.267 63.9998V53.3332Z" fill="black" fill-opacity="0.01"/>
<path d="M0.733337 64.0002L17.8 53.3335V64.0002H0.733337Z" fill="black" fill-opacity="0.01"/>
<path d="M34.8667 64.0002L51.9333 53.3335V64.0002H34.8667Z" fill="black" fill-opacity="0.01"/>
<path d="M69 64.0002L86.0667 53.3335V64.0002H69Z" fill="black" fill-opacity="0.01"/>
<path d="M103.133 64.0002L120.2 53.3335V64.0002H103.133Z" fill="black" fill-opacity="0.01"/>
<path d="M0.733337 0L17.8 10.6667L0.733337 21.3333V0Z" fill="black" fill-opacity="0.05"/>
<path d="M34.8667 0L51.9333 10.6667L34.8667 21.3333V0Z" fill="black" fill-opacity="0.05"/>
<path d="M69 0L86.0667 10.6667L69 21.3333V0Z" fill="black" fill-opacity="0.05"/>
<path d="M103.133 0L120.2 10.6667L103.133 21.3333V0Z" fill="black" fill-opacity="0.05"/>
<path d="M34.8667 0L17.8 10.6667V0H34.8667Z" fill="black" fill-opacity="0.05"/>
<path d="M69 0L51.9333 10.6667V0H69Z" fill="black" fill-opacity="0.05"/>
<path d="M103.133 0L86.0667 10.6667V0H103.133Z" fill="black" fill-opacity="0.05"/>
<path d="M137.267 0L120.2 10.6667V0H137.267Z" fill="black" fill-opacity="0.05"/>
<path d="M0.733337 21.3333L17.8 32L0.733337 42.6667V21.3333Z" fill="black" fill-opacity="0.05"/>
<path d="M17.8 10.6667L34.8667 21.3333L17.8 32V10.6667Z" fill="black" fill-opacity="0.05"/>
<path d="M34.8667 21.3333L51.9333 32L34.8667 42.6667V21.3333Z" fill="black" fill-opacity="0.05"/>
<path d="M51.9333 10.6667L69 21.3333L51.9333 32V10.6667Z" fill="black" fill-opacity="0.05"/>
<path d="M69 21.3333L86.0667 32L69 42.6667V21.3333Z" fill="black" fill-opacity="0.05"/>
<path d="M86.0667 10.6667L103.133 21.3333L86.0667 32V10.6667Z" fill="black" fill-opacity="0.05"/>
<path d="M103.133 21.3333L120.2 32L103.133 42.6667V21.3333Z" fill="black" fill-opacity="0.05"/>
<path d="M120.2 10.6667L137.267 21.3333L120.2 32V10.6667Z" fill="black" fill-opacity="0.05"/>
<path d="M0.733337 42.6667L17.8 53.3333L0.733337 64V42.6667Z" fill="black" fill-opacity="0.05"/>
<path d="M17.8 32L34.8667 42.6667L17.8 53.3333V32Z" fill="black" fill-opacity="0.05"/>
<path d="M34.8667 42.6667L51.9333 53.3333L34.8667 64V42.6667Z" fill="black" fill-opacity="0.05"/>
<path d="M51.9333 32L69 42.6667L51.9333 53.3333V32Z" fill="black" fill-opacity="0.05"/>
<path d="M69 42.6667L86.0667 53.3333L69 64V42.6667Z" fill="black" fill-opacity="0.05"/>
<path d="M86.0667 32L103.133 42.6667L86.0667 53.3333V32Z" fill="black" fill-opacity="0.05"/>
<path d="M103.133 42.6667L120.2 53.3333L103.133 64V42.6667Z" fill="black" fill-opacity="0.05"/>
<path d="M120.2 32L137.267 42.6667L120.2 53.3333V32Z" fill="black" fill-opacity="0.05"/>
<path d="M34.8667 64L17.8 53.3333V64H34.8667Z" fill="black" fill-opacity="0.05"/>
<path d="M69 64L51.9333 53.3333V64H69Z" fill="black" fill-opacity="0.05"/>
<path d="M103.133 64L86.0667 53.3333V64H103.133Z" fill="black" fill-opacity="0.05"/>
<path d="M137.267 64L120.2 53.3333V64H137.267Z" fill="black" fill-opacity="0.05"/>
</svg>
