<svg width="630" height="405" viewBox="0 0 630 405" fill="none" xmlns="http://www.w3.org/2000/svg">
<path d="M436 233H0V235H436V233Z" fill="#E6E6E6"/>
<path d="M436 155H0V157H436V155Z" fill="#E6E6E6"/>
<path d="M436 77H0V79H436V77Z" fill="#E6E6E6"/>
<path d="M349.801 0H347.801V312H349.801V0Z" fill="#E6E6E6"/>
<path d="M262.602 0H260.602V312H262.602V0Z" fill="#E6E6E6"/>
<path d="M175.398 0H173.398V312H175.398V0Z" fill="#E6E6E6"/>
<path d="M88.1992 0H86.1992V312H88.1992V0Z" fill="#E6E6E6"/>
<path d="M262 78H87V156H262V78Z" fill="#FFCA2E"/>
<path d="M87 150V234L178 153L87 150Z" fill="#FFCA2E"/>
<path d="M262 153V156L260.86 157.01L258.56 159.05C213.83 160.4 177.7 192.44 176.07 232.17L174.02 233.99L174 234V150L262 153Z" fill="#FFCA2E"/>
<path d="M261.5 157C261.29 157 261.07 157 260.86 157.01C213.28 157.31 174.61 191.63 174.02 233.99C174 234.33 174 234.66 174 235C174 278.01 213.25 313 261.5 313C309.75 313 349 278.01 349 235C349 191.99 309.75 157 261.5 157ZM261.5 311C214.36 311 176 276.91 176 235C176 234.05 176.02 233.11 176.07 232.17C177.7 192.44 213.83 160.4 258.56 159.05C259.53 159.01 260.51 159 261.5 159C308.64 159 347 193.09 347 235C347 276.91 308.64 311 261.5 311Z" fill="#E6E6E6"/>
<path d="M213.5 234.017L208.5 233.989C208.502 233.544 209.303 189.508 260.451 186.454L260.749 191.445C214.361 194.215 213.513 232.393 213.5 234.017Z" fill="#E6E6E6"/>
<path d="M311.98 233C311.787 227.3 310.45 221.697 308.049 216.525C305.647 211.352 302.23 206.715 298 202.89C288.056 193.822 275.057 188.841 261.6 188.94H261.5C234.03 188.94 211.61 208.61 211.02 233C211 233.33 211 233.67 211 234C211 246.76 216.97 258.29 226.55 266.49C236.331 274.708 248.725 279.165 261.5 279.06H261.6C289.4 279.01 312 258.82 312 234C312 233.67 312 233.33 311.98 233Z" fill="#E6E6E6"/>
<path d="M298 202.89L296.5 204.22L228.05 265.16L226.55 266.49C216.97 258.29 211 246.76 211 234C211 233.67 211 233.33 211.02 233C211.61 208.61 234.03 188.94 261.5 188.94H261.6C275.057 188.841 288.056 193.822 298 202.89Z" fill="#FFCA2E"/>
<path d="M528.381 181.05C540.628 181.05 550.555 171.132 550.555 158.898C550.555 146.663 540.628 136.745 528.381 136.745C516.135 136.745 506.207 146.663 506.207 158.898C506.207 171.132 516.135 181.05 528.381 181.05Z" fill="#2F2E41"/>
<path d="M472.83 274.137C472.339 273.204 472.058 272.175 472.008 271.122C471.958 270.069 472.14 269.018 472.54 268.042C472.941 267.067 473.551 266.191 474.327 265.477C475.103 264.762 476.026 264.226 477.032 263.907L505.13 204.525L517.983 213.529L486.322 269.068C486.747 270.792 486.524 272.611 485.696 274.182C484.868 275.752 483.493 276.965 481.83 277.589C480.167 278.214 478.332 278.208 476.673 277.572C475.015 276.935 473.647 275.713 472.83 274.137Z" fill="#FFB8B8"/>
<path d="M496.906 212.409C496.772 211.964 496.736 211.496 496.8 211.036C496.864 210.575 497.027 210.134 497.277 209.743L506.013 196.06C506.985 193.89 508.777 192.193 510.999 191.341C513.221 190.49 515.69 190.553 517.865 191.517C520.04 192.481 521.744 194.267 522.603 196.484C523.461 198.701 523.405 201.168 522.446 203.344L518.046 219.02C517.92 219.468 517.699 219.883 517.399 220.237C517.098 220.592 516.724 220.878 516.303 221.075C515.882 221.272 515.423 221.376 514.958 221.38C514.493 221.385 514.033 221.289 513.608 221.099L498.685 214.432C498.26 214.243 497.882 213.964 497.575 213.615C497.268 213.266 497.04 212.855 496.906 212.409Z" fill="#FFCA2E"/>
<path d="M567.605 280.025C566.577 279.786 565.614 279.326 564.784 278.675C563.953 278.024 563.276 277.2 562.799 276.259C562.322 275.319 562.057 274.285 562.023 273.232C561.989 272.178 562.187 271.13 562.603 270.161L535.992 210.099L551.215 206.269L572.585 266.512C574.169 267.317 575.401 268.675 576.05 270.327C576.698 271.98 576.717 273.813 576.103 275.478C575.489 277.144 574.285 278.527 572.719 279.365C571.153 280.203 569.333 280.438 567.605 280.025V280.025Z" fill="#FFB8B8"/>
<path d="M574.858 388.892L567.117 391.708L552.562 363.219L563.987 359.063L574.858 388.892Z" fill="#FFB8B8"/>
<path d="M560.782 391.509L575.711 386.079L579.133 395.469L554.805 404.318C554.356 403.085 554.154 401.775 554.211 400.464C554.268 399.153 554.583 397.866 555.138 396.677C555.693 395.487 556.477 394.419 557.446 393.532C558.414 392.645 559.548 391.958 560.782 391.509Z" fill="#2F2E41"/>
<path d="M553.728 370.872L524.238 319.316C523.953 318.817 523.807 318.251 523.813 317.677C523.819 317.103 523.978 316.54 524.273 316.048L537.552 293.937C537.867 293.413 538.325 292.988 538.871 292.713C539.418 292.438 540.032 292.323 540.641 292.382C541.25 292.441 541.83 292.672 542.314 293.047C542.797 293.423 543.164 293.927 543.372 294.502L568.478 363.959C568.755 364.715 568.738 365.547 568.431 366.292C568.124 367.036 567.549 367.638 566.82 367.98L557.924 372.19C557.494 372.393 557.025 372.498 556.55 372.498C555.978 372.499 555.416 372.349 554.921 372.063C554.425 371.778 554.014 371.367 553.728 370.872Z" fill="#2F2E41"/>
<path d="M526.359 183.102C535.474 183.102 542.863 175.72 542.863 166.615C542.863 157.509 535.474 150.127 526.359 150.127C517.244 150.127 509.855 157.509 509.855 166.615C509.855 175.72 517.244 183.102 526.359 183.102Z" fill="#FFB8B8"/>
<path d="M502.885 241.296C489.888 212.506 502.99 196.415 509.227 190.833C511.023 189.223 513.352 188.333 515.765 188.335H539.014C540.683 188.335 542.325 188.761 543.783 189.573C545.242 190.386 546.468 191.557 547.346 192.975C548.223 194.394 548.723 196.014 548.798 197.68C548.873 199.346 548.521 201.004 547.774 202.496L532.233 233.549L503.011 241.577L502.885 241.296Z" fill="#FFCA2E"/>
<path d="M536.898 220.863C536.473 220.673 536.094 220.394 535.788 220.045C535.481 219.695 535.253 219.284 535.12 218.839L530.467 203.29C529.46 201.137 529.347 198.673 530.155 196.438C530.962 194.202 532.624 192.378 534.775 191.364C536.927 190.35 539.393 190.23 541.633 191.029C543.873 191.828 545.705 193.482 546.727 195.628L555.725 209.203C555.982 209.591 556.152 210.029 556.224 210.488C556.296 210.947 556.268 211.416 556.142 211.864C556.016 212.311 555.795 212.726 555.494 213.08C555.193 213.435 554.819 213.72 554.398 213.917L539.593 220.84C539.172 221.038 538.713 221.142 538.248 221.146C537.782 221.149 537.322 221.053 536.898 220.863Z" fill="#FFCA2E"/>
<path d="M521.68 396.676L513.442 396.676L509.523 364.932L521.682 364.932L521.68 396.676Z" fill="#FFB8B8"/>
<path d="M507.562 394.324H523.449V404.318H497.559C497.559 403.005 497.817 401.706 498.32 400.493C498.823 399.281 499.56 398.179 500.488 397.251C501.417 396.323 502.52 395.587 503.734 395.085C504.947 394.583 506.248 394.324 507.562 394.324Z" fill="#2F2E41"/>
<path d="M518.191 384.558L505.002 383.038C504.575 382.989 504.162 382.855 503.788 382.645C503.413 382.434 503.084 382.152 502.82 381.813C502.556 381.474 502.362 381.086 502.249 380.672C502.137 380.258 502.108 379.825 502.164 379.4L513.936 290.857C513.977 290.548 513.96 290.235 513.887 289.932L502.055 241.167C501.944 240.717 501.931 240.248 502.018 239.793C502.106 239.338 502.291 238.908 502.562 238.531C504.397 236.004 510.683 230.115 529.382 230.004H529.402C530.025 230.004 530.635 230.183 531.158 230.519C531.682 230.856 532.098 231.335 532.357 231.901L534.851 237.383C535.037 237.79 535.328 238.14 535.693 238.399C539.127 240.826 555.759 254.454 545.993 284.374C536.394 313.782 524.096 370.873 521.728 382.019C521.577 382.743 521.18 383.394 520.605 383.86C520.03 384.327 519.312 384.581 518.571 384.58C518.444 384.58 518.317 384.572 518.191 384.558Z" fill="#2F2E41"/>
<path d="M543.704 156.244C539.933 158.841 535.456 160.223 530.876 160.205C532.51 161.336 534.37 162.101 536.328 162.445C530.238 163.75 523.944 163.786 517.84 162.549C516.483 162.332 515.174 161.883 513.97 161.221C513.37 160.886 512.847 160.429 512.435 159.879C512.024 159.329 511.733 158.699 511.581 158.029C511.175 155.714 512.981 153.611 514.857 152.194C517.73 150.057 521.043 148.584 524.555 147.883C528.068 147.182 531.692 147.269 535.167 148.139C537.435 148.725 539.708 149.715 541.182 151.535C542.655 153.355 543.092 156.161 541.688 158.036L543.704 156.244Z" fill="#2F2E41"/>
<path d="M532.684 144.775C530.799 144.148 528.859 143.49 527.365 142.181C525.871 140.873 524.923 138.732 525.594 136.864C526.241 135.063 528.213 134.012 530.122 133.87C532.031 133.729 533.91 134.319 535.733 134.902C534.909 133.658 534.057 131.245 533.311 128.699C531.61 122.891 538.7 117.588 544.742 118.025C544.92 118.038 545.092 118.057 545.259 118.081C551.35 118.969 554.511 121.29 558.765 125.736C564.088 131.296 566.871 138.8 568.735 146.265C570.599 153.73 571.694 161.412 574.315 168.646C576.937 175.881 581.359 182.835 588.121 186.517C591.825 188.467 595.994 189.363 600.172 189.105C604.351 188.848 608.378 187.448 611.814 185.058C612.282 188.235 611.994 191.478 610.973 194.523C609.952 197.568 608.227 200.33 605.939 202.584C603.65 204.839 600.861 206.523 597.799 207.5C594.737 208.477 591.488 208.719 588.315 208.207C579.585 206.799 572.592 199.774 568.856 191.767C565.121 183.759 564.101 174.796 563.164 166.011C562.227 157.227 561.278 148.266 557.664 140.203C556.202 136.94 554.048 133.619 550.201 133.098C549.196 132.934 548.165 133.106 547.268 133.586C546.371 134.067 545.657 134.829 545.237 135.755C543.545 139.846 549.334 143.31 547.85 147.209C547.529 147.963 546.998 148.61 546.32 149.072C545.642 149.535 544.846 149.794 544.026 149.818C541.228 150.002 538.93 148.4 536.764 146.853C532.335 143.69 532.684 144.775 532.684 144.775Z" fill="#2F2E41"/>
<path d="M629.286 404.919H474.738C474.56 404.919 474.389 404.848 474.263 404.722C474.137 404.596 474.066 404.426 474.066 404.247C474.066 404.069 474.137 403.899 474.263 403.773C474.389 403.647 474.56 403.576 474.738 403.576H629.286C629.464 403.576 629.635 403.647 629.761 403.773C629.887 403.899 629.958 404.069 629.958 404.247C629.958 404.426 629.887 404.596 629.761 404.722C629.635 404.848 629.464 404.919 629.286 404.919Z" fill="#3F3D56"/>
</svg>
